<svg xmlns="http://www.w3.org/2000/svg" width="340" height="339" fill="none"><g stroke="#398DF9" stroke-linejoin="round" stroke-width="5.404" clip-path="url(#a)" opacity=".4"><path d="M386.691-136.206c0 28.426-5.604 56.574-16.494 82.836a216.437 216.437 0 0 1-46.97 70.226 216.686 216.686 0 0 1-70.296 46.922 216.868 216.868 0 0 1-165.839 0 216.694 216.694 0 0 1-70.295-46.922 216.448 216.448 0 0 1-46.97-70.226 216.274 216.274 0 0 1 0-165.672 216.437 216.437 0 0 1 46.97-70.225 216.68 216.68 0 0 1 70.295-46.923 216.853 216.853 0 0 1 82.92-16.477c28.455 0 56.631 5.598 82.92 16.477a216.679 216.679 0 0 1 70.295 46.923 216.436 216.436 0 0 1 46.97 70.225 216.255 216.255 0 0 1 16.494 82.836Z" opacity=".4"/><path d="M455.07-136.206a284.66 284.66 0 0 1-21.698 109.004 284.836 284.836 0 0 1-61.793 92.409 285.08 285.08 0 0 1-92.48 61.746 285.26 285.26 0 0 1-218.174 0 285.08 285.08 0 0 1-92.48-61.746 284.826 284.826 0 0 1-61.793-92.41 284.659 284.659 0 0 1-21.699-109.003 284.66 284.66 0 0 1 21.7-109.004 284.832 284.832 0 0 1 61.792-92.409 285.06 285.06 0 0 1 92.48-61.745 285.242 285.242 0 0 1 218.174 0 285.06 285.06 0 0 1 92.48 61.745 284.842 284.842 0 0 1 61.793 92.409 284.663 284.663 0 0 1 21.698 109.004Z" opacity=".3"/><path d="M529.112-136.206c0 47.13-9.289 93.797-27.335 137.338a358.883 358.883 0 0 1-77.843 116.43 359.135 359.135 0 0 1-116.501 77.796 359.294 359.294 0 0 1-274.843 0 359.127 359.127 0 0 1-116.5-77.796 358.882 358.882 0 0 1-77.843-116.43 358.702 358.702 0 0 1-27.335-137.338c0-47.129 9.289-93.796 27.335-137.338a358.898 358.898 0 0 1 77.843-116.43 359.11 359.11 0 0 1 116.5-77.795 359.28 359.28 0 0 1 274.843 0 359.116 359.116 0 0 1 116.501 77.795 358.9 358.9 0 0 1 77.843 116.43 358.703 358.703 0 0 1 27.335 137.338Z" opacity=".2"/><path d="M604.024-136.206A433.608 433.608 0 0 1 570.987 29.8a433.81 433.81 0 0 1-94.082 140.733 434.034 434.034 0 0 1-140.804 94.035 434.205 434.205 0 0 1-332.178 0 434.05 434.05 0 0 1-140.804-94.035A433.78 433.78 0 0 1-230.963 29.8a433.608 433.608 0 0 1 0-332.012 433.782 433.782 0 0 1 94.082-140.733A434.032 434.032 0 0 1 3.923-536.979 434.187 434.187 0 0 1 170.012-570a434.187 434.187 0 0 1 166.089 33.021 434.031 434.031 0 0 1 140.804 94.034 433.798 433.798 0 0 1 94.082 140.733 433.613 433.613 0 0 1 33.037 166.006Z" opacity=".1"/></g><defs><clipPath id="a"><rect width="340" height="339" fill="#fff" rx="24"/></clipPath></defs></svg>
