<svg class="io-icon io-icon--figma" fill="none" xmlns="http://www.w3.org/2000/svg" viewBox="0 0 128 128"><rect width="128" height="128" rx="24" fill="url(#paint0_linear_2234_679)"/><g clip-path="url(#clip0_2234_679)"><path d="M50.753 103C58.34 103 64.5 96.877 64.5 89.333V75.667H50.753c-7.589 0-13.747 6.122-13.747 13.666 0 7.544 6.158 13.667 13.747 13.667Z" fill="#0ACF83"/><path d="M37.006 62c0-7.544 6.158-13.667 13.747-13.667H64.5v27.334H50.753c-7.589 0-13.747-6.123-13.747-13.667Z" fill="#A259FF"/><path d="M37.006 34.667C37.006 27.123 43.165 21 50.753 21H64.5v27.333H50.753c-7.588 0-13.747-6.122-13.747-13.666Z" fill="#F24E1E"/><path d="M64.5 21h13.747c7.589 0 13.748 6.123 13.748 13.667s-6.16 13.666-13.748 13.666H64.5V21Z" fill="#FF7262"/><path d="M91.995 62c0 7.544-6.16 13.667-13.748 13.667C70.66 75.667 64.5 69.544 64.5 62s6.159-13.667 13.747-13.667c7.589 0 13.748 6.123 13.748 13.667Z" fill="#1ABCFE"/></g><defs><linearGradient id="paint0_linear_2234_679" x1="64" y1="0" x2="64" y2="128" gradientUnits="userSpaceOnUse"><stop/><stop offset="1" stop-color="#1E1E1E"/></linearGradient><clipPath id="clip0_2234_679"><path fill="#fff" d="M37 21h55v82H37z"/></clipPath></defs></svg>