<svg xmlns="http://www.w3.org/2000/svg" viewbox="0 0 484 484" fill="none">
  <path class="ring-outer" stroke="#A606C6" stroke-linejoin="round" stroke-width="11.849" d="M186.799 12.547a236 236 0 1 1 110.402 458.907A236 236 0 0 1 186.799 12.547Z"/>
  <path class="clone-outer" stroke="#A606C6" stroke-linejoin="round" stroke-width="11.849" d="M186.799 12.547a236 236 0 1 1 110.402 458.907A236 236 0 0 1 186.799 12.547Z"/>
  <path class="ring-middle" stroke="#F70870" stroke-linejoin="round" stroke-width="11.849" d="M202.274 75.91a168.88 168.88 0 0 1 66.216-2.648 169.23 169.23 0 0 1 62.184 23.04 170.217 170.217 0 0 1 48.683 45.223 171.28 171.28 0 0 1 27.773 60.518 171.809 171.809 0 0 1 2.632 66.601 171.432 171.432 0 0 1-22.907 62.545 170.465 170.465 0 0 1-44.96 48.967 169.384 169.384 0 0 1-60.169 27.934 168.885 168.885 0 0 1-66.216 2.648 169.223 169.223 0 0 1-62.184-23.041 170.216 170.216 0 0 1-48.683-45.222 171.276 171.276 0 0 1-27.773-60.518 171.797 171.797 0 0 1-2.633-66.601 171.45 171.45 0 0 1 22.908-62.545 170.465 170.465 0 0 1 44.96-48.967 169.395 169.395 0 0 1 60.169-27.934Z"/>
  <path class="clone-middle" stroke="#F70870" stroke-linejoin="round" stroke-width="11.849" d="M202.274 75.91a168.88 168.88 0 0 1 66.216-2.648 169.23 169.23 0 0 1 62.184 23.04 170.217 170.217 0 0 1 48.683 45.223 171.28 171.28 0 0 1 27.773 60.518 171.809 171.809 0 0 1 2.632 66.601 171.432 171.432 0 0 1-22.907 62.545 170.465 170.465 0 0 1-44.96 48.967 169.384 169.384 0 0 1-60.169 27.934 168.885 168.885 0 0 1-66.216 2.648 169.223 169.223 0 0 1-62.184-23.041 170.216 170.216 0 0 1-48.683-45.222 171.276 171.276 0 0 1-27.773-60.518 171.797 171.797 0 0 1-2.633-66.601 171.45 171.45 0 0 1 22.908-62.545 170.465 170.465 0 0 1 44.96-48.967 169.395 169.395 0 0 1 60.169-27.934Z"/>
  <path class="ring-inner" stroke="#398DF9" stroke-linejoin="round" stroke-width="11.849" d="M216.825 137.354a107.64 107.64 0 0 1 81.369 12.848 107.638 107.638 0 0 1 50.121 108.585 107.646 107.646 0 0 1-43.01 70.259 107.64 107.64 0 0 1-119.499 4.752 107.638 107.638 0 0 1-50.121-108.585 107.646 107.646 0 0 1 43.01-70.259 107.614 107.614 0 0 1 38.13-17.6Z"/>
  <mask id="a" width="105" height="105" x="189" y="181" maskUnits="userSpaceOnUse" style="mask-type:alpha">
    <path fill="#D9D9D9" d="M189.665 181.766h103.747v103.747H189.665z"/>
  </mask>
  <g class="center-group">
    <path d="M208.006 289.173C207.049 289.173 206.247 288.848 205.601 288.2C204.952 287.553 204.628 286.752 204.628 285.795V275.66C204.628 273.802 205.29 272.211 206.614 270.887C207.936 269.565 209.526 268.904 211.384 268.904H222.447C223.573 268.904 224.643 269.186 225.657 269.749C226.67 270.312 227.486 271.072 228.106 272.029C229.738 274.225 231.752 275.942 234.146 277.181C236.537 278.419 239.084 279.038 241.787 279.038C244.545 279.038 247.122 278.419 249.516 277.181C251.907 275.942 253.891 274.225 255.468 272.029C256.2 271.072 257.058 270.312 258.042 269.749C259.028 269.186 260.056 268.904 261.126 268.904H272.189C274.047 268.904 275.638 269.565 276.962 270.887C278.284 272.211 278.945 273.802 278.945 275.66V285.795C278.945 286.752 278.621 287.553 277.972 288.2C277.326 288.848 276.524 289.173 275.567 289.173H258.677C257.72 289.173 256.918 288.848 256.272 288.2C255.623 287.553 255.299 286.752 255.299 285.795V281.488C253.328 282.895 251.204 283.965 248.925 284.697C246.643 285.429 244.264 285.795 241.787 285.795C239.366 285.795 237.001 285.415 234.693 284.656C232.384 283.895 230.245 282.811 228.275 281.403V285.795C228.275 286.752 227.951 287.553 227.305 288.2C226.656 288.848 225.854 289.173 224.896 289.173H208.006ZM241.787 275.66C239.647 275.66 237.62 275.167 235.706 274.181C233.792 273.197 232.187 271.832 230.893 270.087C229.935 268.679 228.74 267.568 227.305 266.752C225.868 265.935 224.305 265.526 222.616 265.526C223.855 263.443 226.473 261.796 230.47 260.584C234.468 259.375 238.24 258.77 241.787 258.77C245.334 258.77 249.106 259.375 253.103 260.584C257.101 261.796 259.719 263.443 260.957 265.526C259.324 265.526 257.776 265.935 256.312 266.752C254.849 267.568 253.638 268.679 252.681 270.087C251.442 271.888 249.866 273.268 247.952 274.225C246.037 275.182 243.982 275.66 241.787 275.66ZM214.762 265.526C211.947 265.526 209.554 264.541 207.584 262.57C205.613 260.6 204.628 258.207 204.628 255.392C204.628 252.577 205.613 250.184 207.584 248.214C209.554 246.243 211.947 245.258 214.762 245.258C217.577 245.258 219.97 246.243 221.941 248.214C223.911 250.184 224.896 252.577 224.896 255.392C224.896 258.207 223.911 260.6 221.941 262.57C219.97 264.541 217.577 265.526 214.762 265.526ZM268.811 265.526C265.996 265.526 263.603 264.541 261.633 262.57C259.662 260.6 258.677 258.207 258.677 255.392C258.677 252.577 259.662 250.184 261.633 248.214C263.603 246.243 265.996 245.258 268.811 245.258C271.626 245.258 274.019 246.243 275.99 248.214C277.96 250.184 278.945 252.577 278.945 255.392C278.945 258.207 277.96 260.6 275.99 262.57C274.019 264.541 271.626 265.526 268.811 265.526ZM241.787 255.392C238.972 255.392 236.579 254.407 234.608 252.436C232.638 250.466 231.653 248.073 231.653 245.258C231.653 242.443 232.638 240.05 234.608 238.08C236.579 236.109 238.972 235.124 241.787 235.124C244.602 235.124 246.995 236.109 248.965 238.08C250.936 240.05 251.921 242.443 251.921 245.258C251.921 248.073 250.936 250.466 248.965 252.436C246.995 254.407 244.602 255.392 241.787 255.392Z" fill="white"/>
    <path fill-rule="evenodd" clip-rule="evenodd" d="M281.067 244.694C282.1 241.125 282.616 237.41 282.616 233.549C282.616 227.928 281.549 222.664 279.415 217.755C277.281 212.846 274.381 208.559 270.716 204.894C267.053 201.232 262.768 198.333 257.859 196.199C252.95 194.065 247.686 192.998 242.066 192.998C236.516 192.998 231.269 194.065 226.323 196.199C221.38 198.333 217.076 201.232 213.411 204.894C209.749 208.559 206.85 212.846 204.716 217.755C202.582 222.664 201.515 227.928 201.515 233.549C201.515 237.307 202.004 240.927 202.983 244.409C203.093 244.293 203.205 244.178 203.319 244.064C204.89 242.493 206.668 241.301 208.608 240.502C208.461 239.801 208.337 239.084 208.238 238.351C208.024 236.786 207.917 235.185 207.917 233.549C207.917 231.912 208.024 230.312 208.238 228.746C208.451 227.181 208.771 225.687 209.198 224.265H225.098C224.814 225.83 224.6 227.376 224.458 228.904C224.316 230.435 224.244 231.983 224.244 233.549C224.244 235.114 224.316 236.66 224.458 238.188C224.568 239.371 224.72 240.565 224.915 241.768C225.963 238.723 227.871 236.402 230.343 233.93C230.444 233.829 230.545 233.73 230.647 233.633C230.647 233.605 230.647 233.577 230.647 233.549C230.647 231.912 230.718 230.347 230.861 228.853C231.003 227.359 231.216 225.83 231.501 224.265H252.63C252.915 225.83 253.128 227.359 253.27 228.853C253.413 230.347 253.484 231.912 253.484 233.549C253.484 233.689 253.483 233.83 253.482 233.969C256.105 236.597 258.297 239.313 259.072 242.398C259.087 242.385 259.102 242.372 259.117 242.358C259.36 240.955 259.545 239.565 259.673 238.188C259.815 236.66 259.887 235.114 259.887 233.549C259.887 231.983 259.815 230.435 259.673 228.904C259.531 227.376 259.317 225.83 259.033 224.265H274.933C275.36 225.687 275.68 227.181 275.894 228.746C276.107 230.312 276.214 231.912 276.214 233.549C276.214 235.185 276.107 236.786 275.894 238.351C275.787 239.13 275.654 239.893 275.495 240.637C277.312 241.433 278.982 242.579 280.467 244.064C280.673 244.27 280.873 244.48 281.067 244.694ZM272.265 217.862H257.752C256.97 214.732 255.938 211.689 254.658 208.736C253.377 205.785 251.919 203.064 250.282 200.574C255.191 201.713 259.514 203.757 263.25 206.708C266.984 209.662 269.989 213.38 272.265 217.862ZM251.243 217.862H232.888C233.884 214.305 235.148 211.014 236.679 207.989C238.207 204.967 240.002 202.139 242.066 199.507C244.129 202.139 245.926 204.967 247.457 207.989C248.985 211.014 250.247 214.305 251.243 217.862ZM226.379 217.862H211.866C214.142 213.38 217.13 209.662 220.83 206.708C224.529 203.757 228.869 201.713 233.849 200.574C232.212 203.064 230.754 205.785 229.473 208.736C228.193 211.689 227.161 214.732 226.379 217.862Z" fill="white"/>
  </g>
  </svg>