<svg class="io-icon io-icon--hourglass" fill="none" xmlns="http://www.w3.org/2000/svg" viewBox="0 0 229 339"><g clip-path="url(#clip0_2_74)"><path fill-rule="evenodd" clip-rule="evenodd" d="M206.116-55H23.073C13.643-55 6-47.356 6-37.927v92.18c0 5.028 2.216 9.8 6.057 13.044l88.163 74.458a8 8 0 0 1 2.838 6.112v5.266a8 8 0 0 1-2.838 6.112l-88.163 74.458A17.073 17.073 0 0 0 6 246.746v92.181C6 348.356 13.644 356 23.073 356h183.043c9.429 0 17.073-7.644 17.073-17.073v-92.181c0-5.027-2.216-9.799-6.057-13.043l-88.163-74.458a8 8 0 0 1-2.838-6.112v-5.266a8 8 0 0 1 2.838-6.112l88.163-74.458a17.073 17.073 0 0 0 6.057-13.043v-92.181c0-9.43-7.644-17.073-17.073-17.073ZM99.707 149.175c.806.681.806 1.969 0 2.65L8.186 229.119A23.073 23.073 0 0 0 0 246.746v92.181C0 351.67 10.33 362 23.073 362h183.043c12.743 0 23.073-10.33 23.073-23.073v-92.181a23.073 23.073 0 0 0-8.186-17.627l-91.521-77.294c-.806-.681-.806-1.969 0-2.65l91.521-77.294a23.073 23.073 0 0 0 8.186-17.627v-92.181c0-12.743-10.33-23.073-23.073-23.073H23.073C10.33-61 0-50.67 0-37.927v92.18a23.073 23.073 0 0 0 8.186 17.628l91.521 77.294Z" fill="#fff"/><path fill="url(#paint0_linear_2_74)" d="M109 113h11v221h-11z"/><mask id="mask0_2_74" style="mask-type:alpha" maskUnits="userSpaceOnUse" x="26" y="-37" width="178" height="163"><path fill-rule="evenodd" clip-rule="evenodd" d="M203.04-28.698a7.69 7.69 0 0 0-7.691-7.691H33.84a7.69 7.69 0 0 0-7.69 7.69v81.193a7.69 7.69 0 0 0 2.87 5.994l80.755 64.935a7.691 7.691 0 0 0 9.639 0l80.755-64.935a7.692 7.692 0 0 0 2.871-5.994v-81.192Z" fill="#398DF8"/></mask><g mask="url(#mask0_2_74)"><path fill="#A606C6" d="M26.149-36.389h179.967v53.836H26.149z"/><path fill="#F70870" d="M26.149 17.447h179.967v53.836H26.149z"/><path fill="url(#paint1_linear_2_74)" d="M26-36h180v161H26z"/></g><mask id="mask1_2_74" style="mask-type:alpha" maskUnits="userSpaceOnUse" x="26" y="179" width="177" height="162"><path fill-rule="evenodd" clip-rule="evenodd" d="M26 332.818a7.69 7.69 0 0 0 7.69 7.691H195.2a7.69 7.69 0 0 0 7.691-7.691v-81.192a7.69 7.69 0 0 0-2.872-5.994l-80.754-64.935a7.691 7.691 0 0 0-9.639 0l-80.755 64.935A7.691 7.691 0 0 0 26 251.626v81.192Z" fill="#398DF8"/></mask></g><defs><linearGradient id="paint0_linear_2_74" x1="114.5" y1="113" x2="114.5" y2="267" gradientUnits="userSpaceOnUse"><stop stop-color="#A606C6"/><stop offset="1" stop-color="#A606C6" stop-opacity="0"/></linearGradient><linearGradient id="paint1_linear_2_74" x1="116" y1="129.5" x2="116" y2="-3" gradientUnits="userSpaceOnUse"><stop offset=".203" stop-color="#A606C6"/><stop offset=".534" stop-color="#F70870"/><stop offset=".854" stop-color="#4189E5"/></linearGradient><clipPath id="clip0_2_74"><path fill="#fff" d="M0 0h229v339H0z"/></clipPath></defs></svg>